<mxfile host="app.diagrams.net" modified="2022-05-02T13:08:47.939Z" agent="5.0 (Windows NT 10.0; Win64; x64) AppleWebKit/537.36 (KHTML, like Gecko) Chrome/101.0.4951.41 Safari/537.36 Edg/101.0.1210.32" etag="x_xu9ywurnKv9hzcY7ak" version="17.5.0" type="github">
  <diagram id="NRG96wmKsFy-NSimjWAR" name="Page-1">
    <mxGraphModel dx="1038" dy="579" grid="1" gridSize="10" guides="1" tooltips="1" connect="1" arrows="1" fold="1" page="1" pageScale="1" pageWidth="850" pageHeight="1100" math="0" shadow="0">
      <root>
        <mxCell id="0" />
        <mxCell id="1" parent="0" />
        <mxCell id="cC3KhHnQdyNx1ZXIQcRA-8" value="" style="edgeStyle=orthogonalEdgeStyle;rounded=0;orthogonalLoop=1;jettySize=auto;html=1;" edge="1" parent="1" source="cC3KhHnQdyNx1ZXIQcRA-1" target="cC3KhHnQdyNx1ZXIQcRA-2">
          <mxGeometry relative="1" as="geometry" />
        </mxCell>
        <mxCell id="cC3KhHnQdyNx1ZXIQcRA-1" value="start" style="rounded=1;whiteSpace=wrap;html=1;" vertex="1" parent="1">
          <mxGeometry x="80" y="30" width="90" height="20" as="geometry" />
        </mxCell>
        <mxCell id="cC3KhHnQdyNx1ZXIQcRA-9" style="edgeStyle=orthogonalEdgeStyle;rounded=0;orthogonalLoop=1;jettySize=auto;html=1;" edge="1" parent="1" source="cC3KhHnQdyNx1ZXIQcRA-2" target="cC3KhHnQdyNx1ZXIQcRA-3">
          <mxGeometry relative="1" as="geometry" />
        </mxCell>
        <mxCell id="cC3KhHnQdyNx1ZXIQcRA-2" value="get the agent id and initialize the position&lt;br&gt;array" style="rounded=0;whiteSpace=wrap;html=1;" vertex="1" parent="1">
          <mxGeometry x="65" y="90" width="120" height="60" as="geometry" />
        </mxCell>
        <mxCell id="cC3KhHnQdyNx1ZXIQcRA-11" value="" style="edgeStyle=orthogonalEdgeStyle;rounded=0;orthogonalLoop=1;jettySize=auto;html=1;" edge="1" parent="1" source="cC3KhHnQdyNx1ZXIQcRA-3" target="cC3KhHnQdyNx1ZXIQcRA-10">
          <mxGeometry relative="1" as="geometry" />
        </mxCell>
        <mxCell id="cC3KhHnQdyNx1ZXIQcRA-3" value="IF card is deployed" style="rhombus;whiteSpace=wrap;html=1;rounded=0;" vertex="1" parent="1">
          <mxGeometry x="85" y="210" width="80" height="80" as="geometry" />
        </mxCell>
        <mxCell id="cC3KhHnQdyNx1ZXIQcRA-14" value="" style="edgeStyle=orthogonalEdgeStyle;rounded=0;orthogonalLoop=1;jettySize=auto;html=1;" edge="1" parent="1" source="cC3KhHnQdyNx1ZXIQcRA-4" target="cC3KhHnQdyNx1ZXIQcRA-13">
          <mxGeometry relative="1" as="geometry" />
        </mxCell>
        <mxCell id="cC3KhHnQdyNx1ZXIQcRA-4" value="calculate the goal distance vector" style="whiteSpace=wrap;html=1;rounded=0;" vertex="1" parent="1">
          <mxGeometry x="240" y="30" width="120" height="60" as="geometry" />
        </mxCell>
        <mxCell id="cC3KhHnQdyNx1ZXIQcRA-20" value="yes" style="edgeStyle=orthogonalEdgeStyle;rounded=0;orthogonalLoop=1;jettySize=auto;html=1;" edge="1" parent="1" source="cC3KhHnQdyNx1ZXIQcRA-5" target="cC3KhHnQdyNx1ZXIQcRA-6">
          <mxGeometry relative="1" as="geometry" />
        </mxCell>
        <mxCell id="cC3KhHnQdyNx1ZXIQcRA-21" value="no" style="edgeStyle=orthogonalEdgeStyle;rounded=0;orthogonalLoop=1;jettySize=auto;html=1;" edge="1" parent="1" source="cC3KhHnQdyNx1ZXIQcRA-5" target="cC3KhHnQdyNx1ZXIQcRA-7">
          <mxGeometry relative="1" as="geometry" />
        </mxCell>
        <mxCell id="cC3KhHnQdyNx1ZXIQcRA-5" value="IF target distance &amp;gt; goal reach min val" style="rhombus;whiteSpace=wrap;html=1;rounded=0;" vertex="1" parent="1">
          <mxGeometry x="420" y="30" width="80" height="80" as="geometry" />
        </mxCell>
        <mxCell id="cC3KhHnQdyNx1ZXIQcRA-6" value="goal vector normalize" style="rounded=1;whiteSpace=wrap;html=1;fillColor=#ffcc99;strokeColor=#36393d;" vertex="1" parent="1">
          <mxGeometry x="550" y="40" width="120" height="60" as="geometry" />
        </mxCell>
        <mxCell id="cC3KhHnQdyNx1ZXIQcRA-23" value="" style="edgeStyle=orthogonalEdgeStyle;rounded=0;orthogonalLoop=1;jettySize=auto;html=1;" edge="1" parent="1" source="cC3KhHnQdyNx1ZXIQcRA-7" target="cC3KhHnQdyNx1ZXIQcRA-22">
          <mxGeometry relative="1" as="geometry" />
        </mxCell>
        <mxCell id="cC3KhHnQdyNx1ZXIQcRA-7" value="ELSE" style="rhombus;whiteSpace=wrap;html=1;rounded=0;" vertex="1" parent="1">
          <mxGeometry x="420" y="150" width="80" height="80" as="geometry" />
        </mxCell>
        <mxCell id="cC3KhHnQdyNx1ZXIQcRA-12" style="edgeStyle=orthogonalEdgeStyle;rounded=0;orthogonalLoop=1;jettySize=auto;html=1;entryX=0.5;entryY=0;entryDx=0;entryDy=0;" edge="1" parent="1" source="cC3KhHnQdyNx1ZXIQcRA-10" target="cC3KhHnQdyNx1ZXIQcRA-4">
          <mxGeometry relative="1" as="geometry" />
        </mxCell>
        <mxCell id="cC3KhHnQdyNx1ZXIQcRA-10" value="return empty data" style="whiteSpace=wrap;html=1;rounded=0;" vertex="1" parent="1">
          <mxGeometry x="65" y="350" width="120" height="60" as="geometry" />
        </mxCell>
        <mxCell id="cC3KhHnQdyNx1ZXIQcRA-16" value="" style="edgeStyle=orthogonalEdgeStyle;rounded=0;orthogonalLoop=1;jettySize=auto;html=1;" edge="1" parent="1" source="cC3KhHnQdyNx1ZXIQcRA-13" target="cC3KhHnQdyNx1ZXIQcRA-15">
          <mxGeometry relative="1" as="geometry" />
        </mxCell>
        <mxCell id="cC3KhHnQdyNx1ZXIQcRA-13" value="construct the position object of card&amp;nbsp;" style="whiteSpace=wrap;html=1;rounded=0;" vertex="1" parent="1">
          <mxGeometry x="240" y="130" width="120" height="60" as="geometry" />
        </mxCell>
        <mxCell id="cC3KhHnQdyNx1ZXIQcRA-18" value="" style="edgeStyle=orthogonalEdgeStyle;rounded=0;orthogonalLoop=1;jettySize=auto;html=1;" edge="1" parent="1" source="cC3KhHnQdyNx1ZXIQcRA-15" target="cC3KhHnQdyNx1ZXIQcRA-17">
          <mxGeometry relative="1" as="geometry" />
        </mxCell>
        <mxCell id="cC3KhHnQdyNx1ZXIQcRA-15" value="based on target get the goal reach min value" style="whiteSpace=wrap;html=1;rounded=0;" vertex="1" parent="1">
          <mxGeometry x="240" y="230" width="120" height="60" as="geometry" />
        </mxCell>
        <mxCell id="cC3KhHnQdyNx1ZXIQcRA-19" style="edgeStyle=orthogonalEdgeStyle;rounded=0;orthogonalLoop=1;jettySize=auto;html=1;entryX=0.5;entryY=0;entryDx=0;entryDy=0;" edge="1" parent="1" source="cC3KhHnQdyNx1ZXIQcRA-17" target="cC3KhHnQdyNx1ZXIQcRA-5">
          <mxGeometry relative="1" as="geometry" />
        </mxCell>
        <mxCell id="cC3KhHnQdyNx1ZXIQcRA-17" value="IF card is loaded" style="rhombus;whiteSpace=wrap;html=1;rounded=0;" vertex="1" parent="1">
          <mxGeometry x="260" y="340" width="80" height="80" as="geometry" />
        </mxCell>
        <mxCell id="cC3KhHnQdyNx1ZXIQcRA-25" value="" style="edgeStyle=orthogonalEdgeStyle;rounded=0;orthogonalLoop=1;jettySize=auto;html=1;" edge="1" parent="1" source="cC3KhHnQdyNx1ZXIQcRA-22" target="cC3KhHnQdyNx1ZXIQcRA-24">
          <mxGeometry relative="1" as="geometry" />
        </mxCell>
        <mxCell id="cC3KhHnQdyNx1ZXIQcRA-22" value="IF card has destination reach function" style="rhombus;whiteSpace=wrap;html=1;rounded=0;" vertex="1" parent="1">
          <mxGeometry x="421" y="270" width="80" height="80" as="geometry" />
        </mxCell>
        <mxCell id="cC3KhHnQdyNx1ZXIQcRA-28" style="edgeStyle=orthogonalEdgeStyle;rounded=0;orthogonalLoop=1;jettySize=auto;html=1;entryX=0.5;entryY=0;entryDx=0;entryDy=0;" edge="1" parent="1" source="cC3KhHnQdyNx1ZXIQcRA-24" target="cC3KhHnQdyNx1ZXIQcRA-26">
          <mxGeometry relative="1" as="geometry" />
        </mxCell>
        <mxCell id="cC3KhHnQdyNx1ZXIQcRA-24" value="call destination reach function&amp;nbsp;" style="rounded=1;whiteSpace=wrap;html=1;fillColor=#f8cecc;gradientColor=#ea6b66;strokeColor=#b85450;" vertex="1" parent="1">
          <mxGeometry x="560" y="280" width="120" height="60" as="geometry" />
        </mxCell>
        <mxCell id="cC3KhHnQdyNx1ZXIQcRA-29" value="" style="edgeStyle=orthogonalEdgeStyle;rounded=0;orthogonalLoop=1;jettySize=auto;html=1;" edge="1" parent="1" source="cC3KhHnQdyNx1ZXIQcRA-26" target="cC3KhHnQdyNx1ZXIQcRA-27">
          <mxGeometry relative="1" as="geometry" />
        </mxCell>
        <mxCell id="cC3KhHnQdyNx1ZXIQcRA-26" value="call&amp;nbsp;setAgentPref&lt;br&gt;Velocity" style="rounded=1;whiteSpace=wrap;html=1;fillColor=#ffcc99;strokeColor=#36393d;" vertex="1" parent="1">
          <mxGeometry x="720" y="40" width="120" height="60" as="geometry" />
        </mxCell>
        <mxCell id="cC3KhHnQdyNx1ZXIQcRA-31" value="" style="edgeStyle=orthogonalEdgeStyle;rounded=0;orthogonalLoop=1;jettySize=auto;html=1;" edge="1" parent="1" source="cC3KhHnQdyNx1ZXIQcRA-27" target="cC3KhHnQdyNx1ZXIQcRA-30">
          <mxGeometry relative="1" as="geometry" />
        </mxCell>
        <mxCell id="cC3KhHnQdyNx1ZXIQcRA-27" value="call&amp;nbsp;setAgentPosition with y flying height" style="rounded=1;whiteSpace=wrap;html=1;fillColor=#ffcc99;strokeColor=#36393d;" vertex="1" parent="1">
          <mxGeometry x="720" y="140" width="120" height="60" as="geometry" />
        </mxCell>
        <mxCell id="cC3KhHnQdyNx1ZXIQcRA-33" value="" style="edgeStyle=orthogonalEdgeStyle;rounded=0;orthogonalLoop=1;jettySize=auto;html=1;fontSize=9;" edge="1" parent="1" source="cC3KhHnQdyNx1ZXIQcRA-30" target="cC3KhHnQdyNx1ZXIQcRA-32">
          <mxGeometry relative="1" as="geometry">
            <Array as="points">
              <mxPoint x="870" y="290" />
              <mxPoint x="870" y="60" />
            </Array>
          </mxGeometry>
        </mxCell>
        <mxCell id="cC3KhHnQdyNx1ZXIQcRA-30" value="&lt;font style=&quot;font-size: 9px&quot;&gt;IF card not &lt;br&gt;spell and &lt;br&gt;stop search&lt;br&gt;&amp;nbsp;false and &lt;br&gt;not attacked &lt;br&gt;by stun&lt;/font&gt;" style="rhombus;whiteSpace=wrap;html=1;" vertex="1" parent="1">
          <mxGeometry x="740" y="240" width="110" height="100" as="geometry" />
        </mxCell>
        <mxCell id="cC3KhHnQdyNx1ZXIQcRA-35" value="" style="edgeStyle=orthogonalEdgeStyle;rounded=0;orthogonalLoop=1;jettySize=auto;html=1;fontSize=9;" edge="1" parent="1" source="cC3KhHnQdyNx1ZXIQcRA-32" target="cC3KhHnQdyNx1ZXIQcRA-34">
          <mxGeometry relative="1" as="geometry" />
        </mxCell>
        <mxCell id="cC3KhHnQdyNx1ZXIQcRA-32" value="&lt;font size=&quot;1&quot;&gt;IF card act mode is group and &lt;br&gt;this is leader&lt;/font&gt;" style="rhombus;whiteSpace=wrap;html=1;" vertex="1" parent="1">
          <mxGeometry x="890" y="10" width="110" height="100" as="geometry" />
        </mxCell>
        <mxCell id="cC3KhHnQdyNx1ZXIQcRA-37" value="" style="edgeStyle=orthogonalEdgeStyle;rounded=0;orthogonalLoop=1;jettySize=auto;html=1;fontSize=9;" edge="1" parent="1" source="cC3KhHnQdyNx1ZXIQcRA-34" target="cC3KhHnQdyNx1ZXIQcRA-36">
          <mxGeometry relative="1" as="geometry" />
        </mxCell>
        <mxCell id="cC3KhHnQdyNx1ZXIQcRA-34" value="call identify target agent" style="rounded=1;whiteSpace=wrap;html=1;fillColor=#f8cecc;gradientColor=#ea6b66;strokeColor=#b85450;" vertex="1" parent="1">
          <mxGeometry x="885" y="150" width="120" height="60" as="geometry" />
        </mxCell>
        <mxCell id="cC3KhHnQdyNx1ZXIQcRA-44" value="" style="edgeStyle=orthogonalEdgeStyle;rounded=0;orthogonalLoop=1;jettySize=auto;html=1;fontSize=12;" edge="1" parent="1" source="cC3KhHnQdyNx1ZXIQcRA-36" target="cC3KhHnQdyNx1ZXIQcRA-43">
          <mxGeometry relative="1" as="geometry" />
        </mxCell>
        <mxCell id="cC3KhHnQdyNx1ZXIQcRA-36" value="&lt;font style=&quot;font-size: 12px&quot;&gt;IF target is moved away&lt;/font&gt;" style="rhombus;whiteSpace=wrap;html=1;fontSize=9;" vertex="1" parent="1">
          <mxGeometry x="905" y="250" width="80" height="80" as="geometry" />
        </mxCell>
        <mxCell id="cC3KhHnQdyNx1ZXIQcRA-46" style="edgeStyle=orthogonalEdgeStyle;rounded=0;orthogonalLoop=1;jettySize=auto;html=1;entryX=0.5;entryY=0;entryDx=0;entryDy=0;fontSize=12;" edge="1" parent="1" source="cC3KhHnQdyNx1ZXIQcRA-43" target="cC3KhHnQdyNx1ZXIQcRA-45">
          <mxGeometry relative="1" as="geometry" />
        </mxCell>
        <mxCell id="cC3KhHnQdyNx1ZXIQcRA-43" value="&lt;font style=&quot;font-size: 12px&quot;&gt;IF target is not foodtruck and&amp;nbsp; it is pop&lt;/font&gt;" style="rhombus;whiteSpace=wrap;html=1;fontSize=9;" vertex="1" parent="1">
          <mxGeometry x="905" y="380" width="80" height="80" as="geometry" />
        </mxCell>
        <mxCell id="cC3KhHnQdyNx1ZXIQcRA-48" value="" style="edgeStyle=orthogonalEdgeStyle;rounded=0;orthogonalLoop=1;jettySize=auto;html=1;fontSize=12;" edge="1" parent="1" source="cC3KhHnQdyNx1ZXIQcRA-45" target="cC3KhHnQdyNx1ZXIQcRA-47">
          <mxGeometry relative="1" as="geometry" />
        </mxCell>
        <mxCell id="cC3KhHnQdyNx1ZXIQcRA-45" value="call&amp;nbsp;&amp;nbsp;releasePopGrp" style="rounded=1;whiteSpace=wrap;html=1;fillColor=#f8cecc;gradientColor=#ea6b66;strokeColor=#b85450;" vertex="1" parent="1">
          <mxGeometry x="1070" y="40" width="120" height="60" as="geometry" />
        </mxCell>
        <mxCell id="cC3KhHnQdyNx1ZXIQcRA-50" value="" style="edgeStyle=orthogonalEdgeStyle;rounded=0;orthogonalLoop=1;jettySize=auto;html=1;fontSize=12;" edge="1" parent="1" source="cC3KhHnQdyNx1ZXIQcRA-47" target="cC3KhHnQdyNx1ZXIQcRA-49">
          <mxGeometry relative="1" as="geometry" />
        </mxCell>
        <mxCell id="cC3KhHnQdyNx1ZXIQcRA-47" value="call&amp;nbsp;&amp;nbsp;resetCard" style="rounded=1;whiteSpace=wrap;html=1;fillColor=#f8cecc;gradientColor=#ea6b66;strokeColor=#b85450;" vertex="1" parent="1">
          <mxGeometry x="1070" y="140" width="120" height="60" as="geometry" />
        </mxCell>
        <mxCell id="cC3KhHnQdyNx1ZXIQcRA-52" value="" style="edgeStyle=orthogonalEdgeStyle;rounded=0;orthogonalLoop=1;jettySize=auto;html=1;fontSize=12;" edge="1" parent="1" source="cC3KhHnQdyNx1ZXIQcRA-49" target="cC3KhHnQdyNx1ZXIQcRA-51">
          <mxGeometry relative="1" as="geometry" />
        </mxCell>
        <mxCell id="cC3KhHnQdyNx1ZXIQcRA-49" value="construct the card position array" style="whiteSpace=wrap;html=1;rounded=0;" vertex="1" parent="1">
          <mxGeometry x="1070" y="260" width="120" height="60" as="geometry" />
        </mxCell>
        <mxCell id="cC3KhHnQdyNx1ZXIQcRA-54" value="" style="edgeStyle=orthogonalEdgeStyle;rounded=0;orthogonalLoop=1;jettySize=auto;html=1;fontSize=12;entryX=0.5;entryY=0;entryDx=0;entryDy=0;" edge="1" parent="1" source="cC3KhHnQdyNx1ZXIQcRA-51" target="cC3KhHnQdyNx1ZXIQcRA-53">
          <mxGeometry relative="1" as="geometry" />
        </mxCell>
        <mxCell id="cC3KhHnQdyNx1ZXIQcRA-51" value="IF&amp;nbsp;cardAttack not false" style="rhombus;whiteSpace=wrap;html=1;rounded=0;" vertex="1" parent="1">
          <mxGeometry x="1090" y="370" width="80" height="80" as="geometry" />
        </mxCell>
        <mxCell id="cC3KhHnQdyNx1ZXIQcRA-56" value="" style="edgeStyle=orthogonalEdgeStyle;rounded=0;orthogonalLoop=1;jettySize=auto;html=1;fontSize=12;" edge="1" parent="1" source="cC3KhHnQdyNx1ZXIQcRA-53" target="cC3KhHnQdyNx1ZXIQcRA-55">
          <mxGeometry relative="1" as="geometry" />
        </mxCell>
        <mxCell id="cC3KhHnQdyNx1ZXIQcRA-53" value="set card attack as false" style="whiteSpace=wrap;html=1;rounded=0;" vertex="1" parent="1">
          <mxGeometry x="1230" y="40" width="120" height="60" as="geometry" />
        </mxCell>
        <mxCell id="cC3KhHnQdyNx1ZXIQcRA-58" value="" style="edgeStyle=orthogonalEdgeStyle;rounded=0;orthogonalLoop=1;jettySize=auto;html=1;fontSize=12;" edge="1" parent="1" source="cC3KhHnQdyNx1ZXIQcRA-55" target="cC3KhHnQdyNx1ZXIQcRA-57">
          <mxGeometry relative="1" as="geometry" />
        </mxCell>
        <mxCell id="cC3KhHnQdyNx1ZXIQcRA-55" value="IF card reaction anim not NA&amp;nbsp;" style="rhombus;whiteSpace=wrap;html=1;rounded=0;" vertex="1" parent="1">
          <mxGeometry x="1250" y="140" width="80" height="80" as="geometry" />
        </mxCell>
        <mxCell id="cC3KhHnQdyNx1ZXIQcRA-60" value="" style="edgeStyle=orthogonalEdgeStyle;rounded=0;orthogonalLoop=1;jettySize=auto;html=1;fontSize=12;" edge="1" parent="1" source="cC3KhHnQdyNx1ZXIQcRA-57" target="cC3KhHnQdyNx1ZXIQcRA-59">
          <mxGeometry relative="1" as="geometry" />
        </mxCell>
        <mxCell id="cC3KhHnQdyNx1ZXIQcRA-57" value="set card reaction anim as NA" style="whiteSpace=wrap;html=1;rounded=0;" vertex="1" parent="1">
          <mxGeometry x="1230" y="260" width="120" height="60" as="geometry" />
        </mxCell>
        <mxCell id="cC3KhHnQdyNx1ZXIQcRA-62" value="" style="edgeStyle=orthogonalEdgeStyle;rounded=0;orthogonalLoop=1;jettySize=auto;html=1;fontSize=12;" edge="1" parent="1" source="cC3KhHnQdyNx1ZXIQcRA-59" target="cC3KhHnQdyNx1ZXIQcRA-61">
          <mxGeometry relative="1" as="geometry" />
        </mxCell>
        <mxCell id="cC3KhHnQdyNx1ZXIQcRA-59" value="return the position object" style="whiteSpace=wrap;html=1;rounded=0;" vertex="1" parent="1">
          <mxGeometry x="1230" y="350" width="120" height="60" as="geometry" />
        </mxCell>
        <mxCell id="cC3KhHnQdyNx1ZXIQcRA-61" value="end" style="ellipse;whiteSpace=wrap;html=1;rounded=0;" vertex="1" parent="1">
          <mxGeometry x="1230" y="450" width="120" height="60" as="geometry" />
        </mxCell>
      </root>
    </mxGraphModel>
  </diagram>
</mxfile>
